<?xml version="1.0" encoding="utf-8"?>
<!-- Generator: Adobe Illustrator 22.1.0, SVG Export Plug-In . SVG Version: 6.00 Build 0)  -->
<svg version="1.1" xmlns="http://www.w3.org/2000/svg" xmlns:xlink="http://www.w3.org/1999/xlink" x="0px" y="0px"
	 viewBox="0 0 1920 1080" style="enable-background:new 0 0 1920 1080;" xml:space="preserve">
<style type="text/css">
	.st0{fill:#E64052;}
	.st1{fill:#FFFFFF;}
</style>
<g id="Banner_Black">
	<g>
		<path class="st0" d="M1449.6,427.7H966.4c5,1.9,10,4.1,14.7,6.5c22.1,11.2,41.4,28.2,55.8,48.9c14.3,20.6,23.5,44.4,26.6,69
			c0,0.2,0.1,0.4,0.1,0.6c17.2,11.4,30.3,22.2,38.8,32c11,12.5,14.8,23.9,11.4,33.8c-1.5,4.4-5.3,10.5-14.4,14.2
			c-5.8,2.3-13.1,3.5-22.2,3.5c-7.5,0-16.3-0.8-26.1-2.4c-14.1,31.2-37.9,56.9-67.9,72.7c-5.4,2.9-11.1,5.4-16.9,7.6h483.3
			c7.9,0,14.3-6.4,14.3-14.3V442C1463.9,434.1,1457.5,427.7,1449.6,427.7z"/>
	</g>
</g>
<g id="White_Banner">
</g>
<g id="Planet">
	<path class="st0" d="M1054.1,558.4c-0.1-1.7-0.3-3.4-0.5-5c-5.9-46.5-34.7-88.7-77-110.2c-49.1-24.9-108-18.9-151.1,12.9
		c-1,0.7-1.9,1.4-2.8,2.2c-3.9,3-7.7,6.3-11.3,9.8c-0.7,0.7-1.4,1.4-2.1,2.1c-2.7,2.7-5.3,5.5-7.7,8.4c-3.8,4.5-2.3,10,1,13.2
		c0.5,0.5,1,0.9,1.6,1.2c3,1.9,7,1.9,10-1.7c5.9-6.9,12.4-13.1,19.4-18.5c4.7-3.7,9.7-7,14.8-10c1.6-0.9,3.2-1.8,4.8-2.6
		c2-0.8,3.9-1.6,5.7-2.2c18-5.1,37.5-5.7,57-1c0.9,0.2,1.8,0.5,2.8,0.7c-9.4,12.8-20.3,24.2-32.5,34.1c-3.2,2.6-2.7,6.2-0.8,8.5
		c2,2.5,6,3.8,9.3,1.1c14-11.3,26.4-24.6,36.9-39.4c11,4.5,21,10.5,29.8,17.9c-8.3,11.8-18.2,22.4-29.4,31.4
		c-1.5,1.2-2.2,2.9-1.9,4.7c0.3,2,1.8,3.8,3.8,4.6c1.8,0.7,3.8,0.4,5.4-0.9c11.5-9.3,21.6-20.1,30.3-32.1
		c6.6,6.8,12.4,14.4,17.1,22.6c-5.2,8.7-11.1,16.8-17.8,24.2c-2.4,2.7-1.6,6.4,0.6,8.4c1.8,1.6,4.6,2.2,6.9-0.3
		c5.6-6.2,10.7-12.9,15.3-19.9c0.2-0.3,0.4-0.7,0.7-1c0.5,1.1,1,2.2,1.4,3.4c1.5,3.7,2.7,7.6,3.8,11.4c0.4,1.6,0.8,3.2,1.2,4.8
		c3.7,16.4,3.8,33.8-0.4,51.3c-0.1,0.6-0.3,1.1-0.4,1.7c-0.2,1-0.5,1.9-0.8,2.8c-0.9,3.2-1.9,6.3-3.1,9.3c-0.4,1-0.7,1.9-1.1,2.8
		c-20.9,50-75.6,78.9-129.9,65.6c-8.5-2.1-16.5-5.1-23.9-8.8c-0.8-0.5-1.8-0.9-2.8-1.5c-2.7-1.4-5.3-3-7.8-4.6
		c22.9,4.8,46.3,4.8,68.9-0.3c8.9-2,17.8-4.8,26.4-8.2c1.9-0.7,3.1-2.2,3.4-4.1c0.3-2-0.6-4.3-2.2-5.5c-1.5-1.2-3.3-1.4-5.1-0.6
		c-35.3,14.1-75,14.6-110.9,1.7c-1.3-1.6-2.5-3.2-3.6-4.8c-5.3-8.4-9.5-17.5-12.7-26.9c17.4,5.8,35.4,8.7,53.7,8.6
		c9.5-0.1,19.4-1.1,29.4-3c3.7-0.7,5.1-4.1,4.5-6.9c-0.5-2.5-2.4-4.7-5.8-4c-28.8,5.4-58.2,2.7-85.4-7.7c-1.5-6.8-2.5-13.7-2.9-20.8
		c2.9,0.7,5.8,1.2,8.7,1.7c2,0.3,3.7-0.3,4.9-1.7c1.3-1.6,1.7-3.9,1-5.9c-0.7-1.8-2.1-2.9-4.1-3.3c-3.6-0.6-7.1-1.4-10.6-2.2
		c0.2-6.2,0.9-12.4,2.1-18.6c1-5.4-2.5-9.4-6.6-10.7c0,0,0,0,0,0c-4.4-1.4-9.5,0.1-10.6,6c-10.4,55.5,10.9,111.6,56.6,145.1
		c43.6,32,103.7,35.6,151.3,10.5c30.6-16.2,54-43.4,66.4-75c0.3-0.8,0.6-1.6,0.9-2.4c1.5-3.9,2.8-8,3.9-12c0.2-0.7,0.4-1.4,0.6-2.1
		c2.6-10,4.1-20.3,4.4-30.8c0-1.7,0.1-3.4,0.1-5.1v-0.3C1054.7,565.9,1054.5,562.1,1054.1,558.4z"/>
</g>
<g id="Planet_Rings">
	<g>
		<path class="st0" d="M950.7,593.5c1.4,0.5,2.8,1.1,4.2,1.6c10.7,3.9,24,9.1,33.6,12.2c1.2,0.4,2.5,0.8,3.7,1.2
			c18.2,5.9,34.3,10.2,48.3,13.1c1.3,0.3,2.6,0.5,3.9,0.8c35.3,6.9,56,4.1,59.8-7.2c4.3-12.5-12.8-32.7-50.6-57.1l0.5,16.8
			c15.6,11.8,23.8,21.6,21.7,27.6c-1.8,5.3-11.5,6.9-26.7,5.3c-1.4-0.1-2.8-0.3-4.3-0.5c-13.1-1.7-29.6-5.5-48.5-11.1
			c-1.3-0.4-2.7-0.8-4.1-1.2c-10.2-3.1-24.3-8.3-35.6-12.3c-1.5-0.5-2.9-1.1-4.4-1.6c-59.4-20.4-100.6-43-100.6-43
			c-51-26.6-85.7-53.5-81.8-64.8c2.2-6.3,15.4-7.4,36.1-4.1c0.9,0.1,2.7,0.6,3.7,0.8l13.4-11.9c-0.7-0.2-2.3-0.7-2.9-0.9
			c-50.4-13.4-81.2-13.2-85.8,0.2c-5.9,17.2,35,52.7,110.1,90.7C844.5,548.3,886.5,569.4,950.7,593.5z"/>
	</g>
</g>
<g id="Controller">
	<path class="st1" d="M950.8,567.6c-0.5,3.1-1,6.2-1.5,9.4c-0.4,2.4-0.8,4.8-1.1,7.1c-0.2,1-0.3,1.9-0.4,2.9
		c-0.4,2.6-0.8,5.3-1.2,7.9c-0.3,1.5-0.5,2.9-0.7,4.4c-0.1,0.9-0.3,1.8-0.4,2.6c-1.7,9.7-7.2,14.4-15.3,13.3
		c-0.7-0.1-1.3-0.2-1.9-0.4c-0.6-0.2-1.2-0.4-1.8-0.6c-5.4-2.6-7.5-8-6.1-15.8c0.9-4.8,0.1-8.6-2.6-11.6c-1.7-2-4.2-3.6-7.6-4.8
		l-0.2-0.1c-3.1-1.2-6.5-2.6-10.4-4.2l-1.1-0.4c-0.6-0.2-1.1-0.5-1.7-0.7c-0.2-0.1-0.4-0.2-0.6-0.3c-2.8-1.2-5.5-2.4-8.3-3.6
		c-1.7-0.8-3.4-1.6-5.1-2.4c-0.5-0.3-1.1-0.5-1.6-0.7c-0.4-0.2-0.8-0.3-1.1-0.5c-2.8-1-5.3-1.4-7.6-1.1c-3.5,0.5-6.5,2.4-9.2,5.9
		c-4.8,6.3-10.2,8.5-15.6,6.6c-0.9-0.4-1.7-0.8-2.4-1.3c-3.2-2.2-5.1-5-5.7-8.1c-0.6-3.6,0.7-7.7,3.7-11.8c0.5-0.6,0.9-1.2,1.4-1.8
		c1-1.3,2-2.6,3-3.9c0.3-0.4,0.6-0.7,0.9-1.1c0.8-1.1,1.7-2.2,2.5-3.2c0.4-0.5,0.7-0.9,1.1-1.4c0.3-0.3,0.5-0.7,0.8-1.1
		c1.1-1.4,2.2-2.7,3.2-4.1c0.1-0.1,0.2-0.2,0.2-0.3c0.1-0.1,0.1-0.2,0.2-0.3c0.9-1.1,1.7-2.1,2.5-3.2c1-1.3,2-2.5,3-3.8
		c1.3-1.6,2.5-3.2,3.8-4.7c4.3-5.4,9.7-6.6,16.7-3.6l3.5,1.5c5.7,2.5,11.4,4.9,17.1,7.3l3.9,1.7l14.1,6c5.5,2.4,11,4.8,16.5,7.1
		l4.9,2.1c0.2,0.1,0.4,0.2,0.6,0.3c0,0,0.1,0.1,0.2,0.1l0.4,0.2C949.6,556.1,951.9,560.9,950.8,567.6z"/>
	<g>
		<path class="st0" d="M957.4,563.4c0-0.3,0-0.6,0-0.9c0-0.3-0.1-0.6-0.1-0.9c0-0.2,0-0.4-0.1-0.5c0,0,0,0,0-0.1
			c0-0.2,0-0.4-0.1-0.6c0-0.3-0.1-0.5-0.1-0.7c0-0.1,0-0.1,0-0.2c0-0.2-0.1-0.5-0.2-0.7c0-0.2-0.1-0.4-0.2-0.6
			c-0.1-0.2-0.1-0.5-0.3-0.7c-0.1-0.3-0.2-0.5-0.3-0.8c-0.1-0.2-0.2-0.5-0.3-0.7c0,0,0,0,0-0.1c-0.1-0.2-0.2-0.5-0.4-0.7
			c-0.3-0.5-0.6-1-1-1.5c-0.2-0.3-0.4-0.5-0.6-0.7l0,0c-0.3-0.4-0.7-0.8-1-1.1c-1.5-1.8-3.8-3.3-7.1-4.7
			c-8.6-3.8-17.1-7.4-25.6-11.1c-1.8-0.8-3.6-1.5-5.4-2.3c-2-0.9-4.1-1.7-6.1-2.6c0,0,0,0,0,0l0,0l0,0c-8.5-3.6-17-7.2-25.5-10.8
			c-4-1.7-7.7-2.3-11-1.9c-0.6,0-1.1,0.2-1.7,0.3c0,0,0,0,0,0l0,0c-0.1,0-0.3,0-0.4,0.1c-0.1,0-0.2,0.1-0.4,0.1
			c-0.3,0.1-0.6,0.2-0.8,0.3c-3.2,1.1-6.1,3.2-8.7,6.4c-1.6,1.9-3.2,3.9-4.8,5.8c-0.1,0.1-0.1,0.1-0.2,0.2c-1.9,2.4-3.8,4.7-5.8,7.1
			c0,0-0.1,0-0.1,0.1c-0.1,0.1-0.3,0.3-0.4,0.5c-0.9,1.2-1.9,2.3-2.8,3.5c-0.4,0.5-0.8,1.1-1.3,1.6c-1.1,1.4-2.2,2.8-3.2,4.2
			c-0.1,0-0.1,0.1-0.1,0.1c-0.3,0.5-0.7,0.9-1,1.4c-0.9,1.1-1.8,2.3-2.6,3.4c-0.2,0.2-0.3,0.5-0.5,0.7c-7.8,11.2-6.8,22,2.6,29.1
			c2.3,1.7,4.8,2.8,7.3,3.3c8.5,2.2,15.6-0.7,22.2-9c1.5-1.9,5.4-2.8,8-2.5c0.2,0,0.4,0,0.6,0.1c0.1,0,0.3,0.1,0.4,0.1
			c1.5,0.5,2.9,1.1,4.4,1.7l0.8,0.3c2.8,1.1,5.6,2.2,8.4,3.3l1.7,0.7c0.5,0.2,0.9,0.4,1.4,0.6c0.2,0.1,0.4,0.2,0.5,0.2l2.2,1
			l0.1,0.1c1.1,0.5,2.1,0.9,3.2,1.4c0.7,0.3,1.4,0.6,2.1,1c1.7,0.8,3.4,1.6,5.2,2.5c2.5,1.2,5,5.6,4.9,8.7c0,0.9,0,1.8,0,2.6
			c-0.5,5.9,0.7,10.5,3.5,14.3c2.1,3.4,5.2,5.7,9.3,6.8c0.7,0.2,1.3,0.4,2,0.5l0.3,0.1c10.9,1.8,19.2-4.2,22.5-16.2
			c0.2-0.9,0.5-1.8,0.7-2.7c0-0.1,0.1-0.3,0.1-0.5c0.3-1.4,0.5-2.7,0.8-4.1c0.3-1.5,0.6-3,0.8-4.5c0-0.2,0.1-0.3,0.1-0.5
			c0.2-0.8,0.3-1.7,0.4-2.5c0-0.2,0.1-0.5,0.1-0.7c0-0.3,0.1-0.7,0.2-1c0.2-1.1,0.4-2.3,0.5-3.4c0.2-1.2,0.4-2.3,0.5-3.4
			c0.1-0.6,0.2-1.3,0.3-1.9c0.3-1.6,0.5-3.3,0.7-4.9c0.4-2.6,0.8-5.1,1.1-7.6c0.1-0.9,0.2-1.8,0.3-2.7
			C957.4,564,957.4,563.7,957.4,563.4z M950.8,567.6c-0.5,3.1-1,6.2-1.5,9.4c-0.4,2.4-0.8,4.8-1.1,7.1c-0.2,1-0.3,1.9-0.4,2.9
			c-0.4,2.6-0.8,5.3-1.2,7.9c-0.3,1.5-0.5,2.9-0.7,4.4c-0.1,0.9-0.3,1.8-0.4,2.6c-1.7,9.7-7.2,14.4-15.3,13.3
			c-0.7-0.1-1.3-0.2-1.9-0.4c-0.6-0.2-1.2-0.4-1.8-0.6c-5.4-2.6-7.5-8-6.1-15.8c0.9-4.8,0.1-8.6-2.6-11.6c-1.7-2-4.2-3.6-7.6-4.8
			l-0.2-0.1c-3.1-1.2-6.5-2.6-10.4-4.2l-1.1-0.4c-0.6-0.2-1.1-0.5-1.7-0.7c-0.2-0.1-0.4-0.2-0.6-0.3c-2.8-1.2-5.5-2.4-8.3-3.6
			c-1.7-0.8-3.4-1.6-5.1-2.4c-0.5-0.3-1.1-0.5-1.6-0.7c-0.4-0.2-0.8-0.3-1.1-0.5c-2.8-1-5.3-1.4-7.6-1.1c-3.5,0.5-6.5,2.4-9.2,5.9
			c-4.8,6.3-10.2,8.5-15.6,6.6c-0.9-0.4-1.7-0.8-2.4-1.3c-3.2-2.2-5.1-5-5.7-8.1c-0.6-3.6,0.7-7.7,3.7-11.8c0.5-0.6,0.9-1.2,1.4-1.8
			c1-1.3,2-2.6,3-3.9c0.3-0.4,0.6-0.7,0.9-1.1c0.8-1.1,1.7-2.2,2.5-3.2c0.4-0.5,0.7-0.9,1.1-1.4c0.3-0.3,0.5-0.7,0.8-1.1
			c1.1-1.4,2.2-2.7,3.2-4.1c0.1-0.1,0.2-0.2,0.2-0.3c0.1-0.1,0.1-0.2,0.2-0.3c0.9-1.1,1.7-2.1,2.5-3.2c1-1.3,2-2.5,3-3.8
			c1.3-1.6,2.5-3.2,3.8-4.7c4.3-5.4,9.7-6.6,16.7-3.6l3.5,1.5c5.7,2.5,11.4,4.9,17.1,7.3l3.9,1.7l14.1,6c5.5,2.4,11,4.8,16.5,7.1
			l4.9,2.1c0.2,0.1,0.4,0.2,0.6,0.3c0,0,0.1,0.1,0.2,0.1l0.4,0.2C949.6,556.1,951.9,560.9,950.8,567.6z"/>
		<path class="st0" d="M940.3,568.9c-1.9-0.8-4.2,0.1-4.9,2c-0.8,1.9,0.2,4.1,2.1,4.9c2,0.8,4.2-0.1,5-2.1
			C943.2,571.9,942.2,569.7,940.3,568.9z"/>
		<path class="st0" d="M936.6,560.5c0.8-1.9-0.2-4.1-2.1-4.9c-2-0.8-4.2,0.2-5,2.1c-0.8,1.9,0.2,4.1,2.1,4.9
			C933.6,563.4,935.8,562.4,936.6,560.5z"/>
		<path class="st0" d="M923.2,566.1c0.8-1.9-0.2-4.1-2.1-4.9c-1.9-0.8-4.2,0.2-5,2.1c-0.8,1.9,0.2,4.1,2.1,4.9
			C920.2,569,922.4,568,923.2,566.1z"/>
		<path class="st0" d="M890.8,548.5l-4.8-2.1l2.1-4.7c0.7-1.6,0-3.5-1.7-4.3c-1.7-0.7-3.6,0-4.3,1.6l-2.1,4.7l-4.8-2.1
			c-1.7-0.7-3.6,0-4.3,1.6c-0.7,1.6,0,3.5,1.7,4.3l4.8,2.1l-1,2.1l-1.2,2.6c-0.7,1.6,0,3.5,1.7,4.3c1.7,0.7,3.6,0,4.3-1.6l1-2.2
			l1.1-2.5l4.8,2.1c1.7,0.7,3.6,0,4.3-1.6C893.2,551.1,892.4,549.2,890.8,548.5z"/>
		<path class="st0" d="M926.8,574.5c-1.2-0.5-2.4-0.3-3.4,0.3c-0.7,0.4-1.2,1-1.5,1.8c-0.8,1.9,0.2,4.1,2.1,4.9c2,0.8,4.2-0.1,5-2.1
			c0.3-0.6,0.3-1.3,0.2-2C928.9,576.1,928.1,575,926.8,574.5z"/>
	</g>
</g>
<g id="SIOW_Text">
	<g>
		<path class="st1" d="M1302.3,468.7c0-14.2,8.6-21.2,23.5-21.2h41.8v21.3h-39.8c-1.7,0-2.7,0.8-2.7,3.1v17.3h30.6v21.4h-30.6V532
			h-22.8V468.7z"/>
		<path class="st1" d="M1203.6,566.2h-20.4v48.4h-17.5v-64.7h41.3c10.4,0,17,5.3,17,16.5v48.2h-17.5v-45.4
			C1206.6,566.8,1205.7,566.2,1203.6,566.2z"/>
		<path class="st1" d="M1139.3,510.7h43.4c2.8,0,3.6-0.7,3.6-2.7v-4c0-1.6-0.8-2.3-3.5-2.3H1162c-12.9,0-22.7-4-22.7-19v-14.6
			c0-14,9.3-20.6,23.4-20.6h39.7v21.3h-37.1c-2.2,0-3.1,0.8-3.1,2.8v6.1c0,1.9,0.9,2.7,3.5,2.7h21.2c14.2,0,22.3,5.5,22.3,20.7v10.2
			c0,13.2-8.1,20.7-23.4,20.7h-46.4V510.7z"/>
		<rect x="1139.3" y="549.9" class="st1" width="17.5" height="64.7"/>
		<path class="st1" d="M1213.1,675.1c0,10.1-6,16-15.5,16h-13.3c-4.4,0-6.8-1.2-8.1-3.7c-1.4,2.5-3.8,3.7-7.9,3.7h-13.5
			c-9.4,0-15.4-6.1-15.4-15.5v-43.1h15.9v40.7c0,2.3,0.9,3.1,2.6,3.1h8.1c1.7,0,2.4-1,2.4-2.8v-41.1h15.9v41c0,2,0.7,2.8,2.3,2.8
			h8.1c1.6,0,2.6-0.8,2.6-2.9v-40.9h15.9V675.1z"/>
		<path class="st1" d="M1320.2,597.9v-48h17.5v45.2c0,2.3,0.8,3.1,3,3.1h17.4c2.4,0,3-0.8,3-3.1v-45.2h17.5v47.9
			c0,11.6-6,16.7-17.6,16.7h-23C1325.6,614.6,1320.2,608.1,1320.2,597.9z"/>
		<polygon class="st1" points="1382.9,691 1338.6,691 1338.6,632.5 1354.4,632.5 1354.4,676.3 1382.9,676.3 		"/>
		<path class="st1" d="M1441.4,468.8H1400c-1.9,0-2.5,0.7-2.5,2.9v8.7h32.8v21.3h-32.8v6.3c0,1.6,0.7,2.7,2.5,2.7h41.4V532h-44.7
			c-14.5,0-22.2-7.8-22.2-21.8v-40.5c0-15.5,9-22.2,22.2-22.2h44.7V468.8z"/>
		<path class="st1" d="M1438.7,587.8c2.4-1.5,3-4.3,3-9v-12.3c0-11.9-5-16.6-17.5-16.6h-37.6v64.7h17.5v-16.3h19.9
			c3.3,0,4.1,0.4,4.1,2.8v13.5h17.5v-16.3C1445.6,592.2,1442.7,589.2,1438.7,587.8z M1424.2,578.3c0,2.8-0.6,3.7-3.4,3.7h-16.7
			v-15.8h16.7c2.6,0,3.3,1,3.3,3.4V578.3z"/>
		<path class="st1" d="M1326.7,666.8c2.2-1.4,2.7-3.9,2.7-8.1v-11.1c0-10.8-4.5-15.1-15.8-15.1h-34V691h15.8v-14.7h18
			c3,0,3.7,0.4,3.7,2.5V691h15.8v-14.7C1332.9,670.8,1330.3,668.1,1326.7,666.8z M1313.6,658.2c0,2.5-0.5,3.3-3.1,3.3h-15.1v-14.3
			h15.2c2.3,0,3,0.9,3,3.1V658.2z"/>
		<path class="st1" d="M1295.4,549.9h-22.8c-11.2,0-17.8,5.4-17.8,16.6v31.4c0,10.1,5.4,16.7,17.8,16.7h22.8
			c11.7,0,17.7-5.2,17.7-16.7v-31.2C1313.1,555.2,1307.7,549.9,1295.4,549.9z M1295.6,595.2c0,2.4-0.4,3-3,3h-17.2c-2.5,0-3-0.6-3-3
			v-26c0-2.3,0.7-3,3-3h17.2c2.3,0,3,0.7,3,3V595.2z"/>
		<path class="st1" d="M1256.3,632.5h-20.6c-10.2,0-16.1,4.9-16.1,15.1V676c0,9.2,4.8,15.1,16.1,15.1h20.6
			c10.6,0,16.1-4.7,16.1-15.2v-28.2C1272.4,637.3,1267.5,632.5,1256.3,632.5z M1256.5,673.5c0,2.2-0.4,2.8-2.7,2.8h-15.6
			c-2.3,0-2.8-0.6-2.8-2.8V650c0-2.1,0.7-2.7,2.8-2.7h15.6c2.1,0,2.7,0.6,2.7,2.7V673.5z"/>
		<path class="st1" d="M1425.4,632.5h-36.9V691h36.9c10.9,0,16-4.9,16-15.1v-28.3C1441.5,637.2,1436.8,632.5,1425.4,632.5z
			 M1425.6,673.5c0,2.4-0.5,2.8-2.8,2.8h-18.5v-29h18.5c2.3,0,2.8,0.6,2.8,2.8V673.5z"/>
		<path class="st1" d="M1268.9,447.5h-28.3c-14.5,0-24.1,6.1-24.1,21.6V532h23v-21.3h30.5V532h22.9v-62.5
			C1293,452.7,1283.7,447.5,1268.9,447.5z M1270.1,489.3h-30.5v-17.8c0-1.9,1.3-2.7,2.8-2.7h24.5c2.1,0,3.1,1,3.1,2.8V489.3z"/>
	</g>
</g>
<g id="Stars">
	<g>
		<path class="st1" d="M1082.8,534.4c-3.1,0-3.1-4.8,0-4.8C1085.9,529.5,1085.9,534.4,1082.8,534.4z"/>
		<path class="st1" d="M1355.7,523.1c8.3,0,8.3,12.9,0,12.9C1347.4,536,1347.4,523.1,1355.7,523.1z"/>
		<path class="st1" d="M1291.5,435.7c5.2,0,5.2,8.1,0,8.1C1286.3,443.8,1286.3,435.7,1291.5,435.7z"/>
		<path class="st1" d="M1115.1,642.4c6.3,0,6.2,9.7,0,9.7C1108.9,652.1,1108.9,642.4,1115.1,642.4z"/>
		<path class="st1" d="M1241.4,554.8c-3.1,0-3.1-4.8,0-4.8C1244.5,549.9,1244.5,554.8,1241.4,554.8z"/>
		<path class="st1" d="M1108.3,519.5c-6.3,0-6.2-9.7,0-9.7C1114.5,509.9,1114.5,519.5,1108.3,519.5z"/>
		<path class="st1" d="M1097,470.5c5.2,0,5.2,8.1,0,8.1C1091.8,478.6,1091.8,470.5,1097,470.5z"/>
		<path class="st1" d="M1038.5,441.5c10.4,0,10.4,16.2,0,16.2C1028.1,457.7,1028.1,441.5,1038.5,441.5z"/>
		<path class="st1" d="M1078.1,682.9c-6.3,0-6.2-9.7,0-9.7C1084.4,673.2,1084.4,682.9,1078.1,682.9z"/>
		<path class="st1" d="M1323,625.9c-3.1,0-3.1-4.8,0-4.8C1326.1,621.1,1326.1,625.9,1323,625.9z"/>
		<path class="st1" d="M1447.9,542.2c3.1,0,3.1,4.8,0,4.8C1444.8,547.1,1444.8,542.2,1447.9,542.2z"/>
	</g>
</g>
<g id="_x23_SafeInOurWorld">
</g>
<g id="Message_Outlined">
</g>
</svg>
